<svg width="22" height="21" viewBox="0 0 22 21" fill="none" xmlns="http://www.w3.org/2000/svg">
<path d="M18.3452 0.0654297H3.46806C2.69514 0.0654297 1.95385 0.372475 1.40731 0.919019C0.860757 1.46558 0.553711 2.20685 0.553711 2.97979V17.8569C0.553711 18.6299 0.860757 19.3712 1.40731 19.9177C1.95385 20.4642 2.69514 20.7713 3.46806 20.7713H10.2389V13.2137H7.67912V10.2657H10.2389V8.09414C10.2389 6.86343 10.5792 5.90708 11.2599 5.22767C11.9406 4.54696 12.8634 4.20532 14.0293 4.20532C15.1966 4.20532 15.9524 4.25061 16.2979 4.33602V6.96049H14.7424C14.1807 6.96049 13.7977 7.07955 13.5919 7.31767C13.3874 7.55449 13.2852 7.91167 13.2852 8.38661V10.2657H16.2009L15.8126 13.2137H13.2852V20.7713H18.3452C19.1182 20.7713 19.8595 20.4642 20.406 19.9177C20.9526 19.3712 21.2596 18.6299 21.2596 17.8569V2.97979C21.2596 2.20685 20.9526 1.46558 20.406 0.919019C19.8595 0.372475 19.1182 0.0654297 18.3452 0.0654297Z" fill="white"/>
</svg>
