<svg width="20" height="16" viewBox="0 0 20 16" fill="none" xmlns="http://www.w3.org/2000/svg">
<path d="M10 11.75C9.3543 11.75 8.70859 11.5382 8.15781 11.109L0 4.76562V13.625C0 14.6602 0.839453 15.5 1.875 15.5H18.125C19.1605 15.5 20 14.6605 20 13.625V4.76562L11.8438 11.1133C11.293 11.5391 10.6445 11.75 10 11.75ZM0.636328 3.67578L8.92539 10.125C9.55781 10.6172 10.4437 10.6172 11.0762 10.125L19.3652 3.67578C19.7305 3.36328 20 2.88281 20 2.375C20 1.33945 19.1602 0.5 18.125 0.5H1.875C0.839453 0.5 0 1.33945 0 2.375C0 2.88281 0.234766 3.36328 0.636328 3.67578Z" fill="white"/>
</svg>
